<?xml version="1.0" encoding="UTF-8"?>
<svg version="1.1" xmlns="http://www.w3.org/2000/svg" width="1024" height="1024">
<path d="M0 0 C337.92 0 675.84 0 1024 0 C1024 337.92 1024 675.84 1024 1024 C686.08 1024 348.16 1024 0 1024 C0 686.08 0 348.16 0 0 Z " fill="#E3E4E3" transform="translate(0,0)"/>
<path d="M0 0 C2.62607886 0.40650101 5.256549 0.68794502 7.8984375 0.97412109 C33.46058177 3.95313882 59.21428594 11.65572518 82.1796875 23.33740234 C83.52329346 24.00425049 83.52329346 24.00425049 84.89404297 24.68457031 C97.20376263 30.80771988 109.03460511 37.27135087 120.1796875 45.33740234 C121.22125 46.08634766 122.2628125 46.83529297 123.3359375 47.60693359 C129.69553455 52.28648245 135.76941286 57.25622391 141.78125 62.36865234 C144.00518293 64.34257329 144.00518293 64.34257329 146.1796875 65.33740234 C146.3653125 64.67740234 146.5509375 64.01740234 146.7421875 63.33740234 C150.17591009 56.17137259 156.47134408 51.07424657 162.3515625 45.91552734 C166.29360262 42.32195486 170.01278919 38.51904055 173.71337891 34.6784668 C178.83303213 29.44593808 178.83303213 29.44593808 182.1796875 28.33740234 C186.94440172 28.41303273 189.21125336 28.69177958 193.1796875 31.33740234 C195.51086035 34.83416162 195.73876016 36.85901851 195.74609375 40.95849609 C194.15564728 47.63837127 188.62219855 51.98302573 183.7421875 56.39990234 C176.35811275 63.19511514 169.22614215 70.19471387 162.1796875 77.33740234 C161.18073958 78.33845332 160.18139544 79.3391132 159.1796875 80.33740234 C159.83710937 80.92521484 159.83710937 80.92521484 160.5078125 81.52490234 C173.68751487 93.95454035 182.99864481 109.89182819 192.1796875 125.33740234 C192.60378906 126.04364746 193.02789063 126.74989258 193.46484375 127.47753906 C207.44070591 150.8686582 217.63031628 176.50236372 222.77832031 203.28320312 C223.17370961 205.30680747 223.60590195 207.31938883 224.046875 209.33349609 C225.60518111 216.69002886 226.43336458 223.83746057 226.76171875 231.34130859 C226.82437927 232.6460614 226.82437927 232.6460614 226.88830566 233.97717285 C226.98952998 236.09705768 227.08519225 238.2172069 227.1796875 240.33740234 C227.74852158 240.31963745 228.31735565 240.30187256 228.90342712 240.28356934 C234.85716283 240.10572734 240.81013733 239.98557861 246.76586914 239.89794922 C248.98428014 239.85787011 251.20248183 239.80338913 253.42016602 239.73388672 C274.24438396 239.09788994 274.24438396 239.09788994 280.15625 244.14599609 C282.66308802 246.99443609 283.14344662 248.04229804 283.6171875 251.89990234 C281.66855789 256.55966879 278.8189565 261.01776784 274.1796875 263.33740234 C272.66804358 263.42717963 271.15248571 263.45497667 269.63818359 263.45092773 C268.69735931 263.4508522 267.75653503 263.45077667 266.78720093 263.45069885 C265.76945587 263.44553757 264.75171082 263.44037628 263.703125 263.43505859 C262.14254868 263.43293617 262.14254868 263.43293617 260.55044556 263.43077087 C257.21849729 263.42516101 253.88661555 263.41260682 250.5546875 263.39990234 C248.29948014 263.39488862 246.04427172 263.39032549 243.7890625 263.38623047 C238.25258136 263.37518837 232.71613918 263.35844061 227.1796875 263.33740234 C227.13287842 264.48885742 227.08606934 265.6403125 227.0378418 266.82666016 C226.62083133 276.06932226 225.86629631 285.00624811 223.9921875 294.08740234 C223.66118042 295.73409912 223.66118042 295.73409912 223.32348633 297.4140625 C218.1503019 322.47896376 210.2456009 345.000417 197.42236328 367.18115234 C196.34147883 369.05666737 195.28375741 370.9420228 194.23828125 372.83740234 C190.74399194 379.06388538 186.78971718 384.73811376 182.4375 390.39599609 C180.2740098 393.21452225 178.18803326 396.07539973 176.1171875 398.96240234 C172.84700726 403.49084833 169.40323383 407.84199871 165.84375 412.14599609 C164.31517184 414.15898283 163.26979505 416.07075093 162.1796875 418.33740234 C163.10910156 419.25521484 164.03851562 420.17302734 164.99609375 421.11865234 C176.2572689 432.28390348 176.2572689 432.28390348 179.9296875 436.64990234 C183.30597141 440.65815734 187.18694014 444.02647034 191.140625 447.45458984 C193.80820055 449.91775347 194.11844339 450.89119524 194.6171875 454.52490234 C194.03992786 459.55530779 191.83868966 461.98173715 188.1796875 465.33740234 C184.96478632 466.94485293 182.7495804 466.74045477 179.1796875 466.33740234 C172.63895477 463.09463401 167.98206863 456.99680588 163.19921875 451.65771484 C159.95674895 448.05784994 156.59028616 444.59015422 153.1796875 441.14990234 C152.62772705 440.5852124 152.0757666 440.02052246 151.50708008 439.4387207 C149.08904655 437.01395066 147.47403882 435.43551945 144.1796875 434.33740234 C144.1796875 434.99740234 144.1796875 435.65740234 144.1796875 436.33740234 C102.85341175 476.08492149 37.41797746 503.07028698 -19.8203125 502.33740234 C-19.748125 503.63033203 -19.6759375 504.92326172 -19.6015625 506.25537109 C-19.31044367 511.61474483 -19.05380706 516.97522023 -18.8203125 522.33740234 C-18.78873047 523.04445313 -18.75714844 523.75150391 -18.72460938 524.47998047 C-18.65403688 526.24429276 -18.61098657 528.0096477 -18.5703125 529.77490234 C-18.54453125 530.74298828 -18.51875 531.71107422 -18.4921875 532.70849609 C-18.89328087 535.92201801 -19.91294401 537.73928125 -21.8203125 540.33740234 C-25.82665001 543.00829402 -29.11022678 543.04434107 -33.8203125 542.33740234 C-36.85246925 540.1390887 -37.63685648 538.88777041 -38.8203125 535.33740234 C-38.90513023 532.7511001 -38.93629479 530.19262178 -38.91796875 527.60693359 C-38.91584633 526.48130257 -38.91584633 526.48130257 -38.91368103 525.33293152 C-38.9080881 522.93854774 -38.89553694 520.54425781 -38.8828125 518.14990234 C-38.87779658 516.52555474 -38.87323384 514.90120566 -38.86914062 513.27685547 C-38.85812098 509.29700165 -38.84086123 505.31721791 -38.8203125 501.33740234 C-39.74505371 501.35480469 -40.66979492 501.37220703 -41.62255859 501.39013672 C-85.85560013 501.86183603 -133.92548492 486.42434746 -169.8203125 460.33740234 C-170.93097148 459.55947242 -172.04302436 458.78352989 -173.15625 458.00927734 C-179.37973227 453.65664194 -185.46254781 449.14042353 -191.4453125 444.46240234 C-192.02522949 444.01018311 -192.60514648 443.55796387 -193.20263672 443.09204102 C-196.26807571 440.66941365 -199.12366844 438.16559002 -201.8203125 435.33740234 C-204.8271305 436.67739732 -206.81793859 438.13585526 -209.0703125 440.52490234 C-211.46082559 442.99122451 -213.88871833 445.30330063 -216.5078125 447.52490234 C-220.75538152 451.16686094 -224.64741297 455.1294625 -228.52026367 459.16235352 C-231.98431937 462.70936681 -235.14556602 465.8367331 -240.13671875 466.77099609 C-246.20768911 466.7815543 -246.20768911 466.7815543 -249.3203125 464.52490234 C-251.87761983 460.79549583 -252.40571393 457.16850017 -252.35546875 452.73974609 C-251.29599355 447.9837078 -247.42991602 445.33605398 -243.8203125 442.33740234 C-242.58910501 441.27726789 -241.35991452 440.21478618 -240.1328125 439.14990234 C-239.16214844 438.31458984 -239.16214844 438.31458984 -238.171875 437.46240234 C-235.02328283 434.6171629 -232.0131416 431.6452511 -229.0078125 428.64990234 C-228.44425049 428.09085205 -227.88068848 427.53180176 -227.30004883 426.95581055 C-224.57287737 424.21880111 -222.03021518 421.52431463 -219.8203125 418.33740234 C-221.18578096 415.22791972 -222.68633726 413.35289054 -225.1953125 411.08740234 C-230.97029951 405.44817452 -235.59007466 398.96064829 -240.30322266 392.43554688 C-241.27562978 391.09070188 -242.25395902 389.75010742 -243.23974609 388.41503906 C-256.05433056 371.03585678 -265.55312303 351.62676851 -272.8203125 331.33740234 C-273.13339355 330.47324707 -273.44647461 329.6090918 -273.76904297 328.71875 C-281.26843004 307.6874428 -283.82481659 286.4575629 -285.8203125 264.33740234 C-286.66143333 264.33859573 -286.66143333 264.33859573 -287.51954651 264.33981323 C-293.37662384 264.34225839 -299.23238206 264.30292454 -305.08911133 264.23974609 C-307.27231716 264.22162149 -309.4556374 264.21401114 -311.63891602 264.21728516 C-314.78491116 264.22015232 -317.92855076 264.1847316 -321.07421875 264.14208984 C-322.52931602 264.15573074 -322.52931602 264.15573074 -324.0138092 264.16964722 C-329.99860172 264.042415 -333.24218273 263.02632637 -337.56919861 258.81692505 C-339.54739934 256.47757535 -339.83484778 255.21142988 -340.1953125 252.08740234 C-339.69590093 247.09328661 -338.37288206 245.80923169 -334.8203125 242.33740234 C-331.85996078 240.52572153 -329.68574091 240.09096735 -326.23535156 240.11035156 C-325.33471985 240.11050262 -324.43408813 240.11065369 -323.50616455 240.11080933 C-322.06065216 240.12629318 -322.06065216 240.12629318 -320.5859375 240.14208984 C-319.59277527 240.14491974 -318.59961304 240.14774963 -317.57635498 240.15066528 C-314.40755106 240.16185091 -311.23903085 240.18695272 -308.0703125 240.21240234 C-305.920577 240.22243423 -303.77083707 240.23155971 -301.62109375 240.23974609 C-296.35407004 240.26178493 -291.08721154 240.2952465 -285.8203125 240.33740234 C-285.74514404 239.60328125 -285.66997559 238.86916016 -285.5925293 238.11279297 C-279.84128911 182.57398373 -261.12112638 120.84915157 -218.8203125 81.33740234 C-218.1603125 81.33740234 -217.5003125 81.33740234 -216.8203125 81.33740234 C-218.23783999 77.9313732 -219.82129453 76.33782102 -222.8046875 74.20849609 C-228.34982006 70.04298718 -233.1818427 65.30677753 -238.0703125 60.39990234 C-238.94171875 59.54460937 -239.813125 58.68931641 -240.7109375 57.80810547 C-252.7622002 45.76602818 -252.7622002 45.76602818 -252.8828125 38.64990234 C-251.73673222 35.07682852 -250.42231886 33.01825738 -247.8203125 30.33740234 C-244.95423121 28.9043617 -243.00730467 29.03096079 -239.8203125 29.33740234 C-234.93490478 32.17348446 -231.17229398 35.7189454 -227.25 39.71240234 C-226.64648712 40.31874512 -226.04297424 40.92508789 -225.4211731 41.54980469 C-223.50776872 43.47432397 -221.60145361 45.40569164 -219.6953125 47.33740234 C-218.40801868 48.63474049 -217.12026246 49.93162 -215.83203125 51.22802734 C-213.46831669 53.60801434 -211.10726558 55.99057298 -208.74951172 58.37646484 C-206.44803146 60.70510149 -204.13859113 63.02546744 -201.8203125 65.33740234 C-201.40998779 64.83241211 -200.99966309 64.32742188 -200.5769043 63.80712891 C-196.36188485 58.78472712 -191.99188028 54.84281422 -186.6328125 51.08740234 C-185.47193115 50.26332886 -185.47193115 50.26332886 -184.28759766 49.42260742 C-170.513802 39.79032227 -155.99939295 31.52618162 -140.8203125 24.33740234 C-139.74910156 23.81791016 -138.67789063 23.29841797 -137.57421875 22.76318359 C-95.88681155 2.93434197 -46.07653452 -7.95760558 0 0 Z " fill="#171819" transform="translate(541.8203125,242.66259765625)"/>
<path d="M0 0 C11.55 0 23.1 0 35 0 C35 69.96 35 139.92 35 212 C24.01721148 212 14.58416447 211.12995216 4 209 C2.54255371 208.70996094 2.54255371 208.70996094 1.05566406 208.4140625 C-35.67795587 200.94047201 -68.53010304 186.21347667 -98 163 C-98.97324219 162.26523437 -99.94648438 161.53046875 -100.94921875 160.7734375 C-101.87347656 160.06445312 -102.79773438 159.35546875 -103.75 158.625 C-104.56984375 157.99851562 -105.3896875 157.37203125 -106.234375 156.7265625 C-107.10835938 155.87191406 -107.10835938 155.87191406 -108 155 C-108 154.01 -108 153.02 -108 152 C-106.2505093 150.63539726 -104.48733059 149.28657871 -102.6796875 148 C-97.42010115 144.07447782 -92.5376326 139.67436599 -87.58447266 135.37304688 C-86.27387038 134.2373262 -84.95620843 133.10975794 -83.63671875 131.984375 C-79.27687905 128.24487321 -75.23639607 124.26002051 -71.203125 120.171875 C-69.27625212 118.27233365 -67.31161086 116.49977056 -65.25 114.75 C-57.03701328 107.67267677 -49.10511941 99.96837204 -42.66796875 91.2265625 C-40.73256555 88.64300319 -38.65120225 86.21105155 -36.5625 83.75 C-32.25588105 78.48072505 -28.64411501 73.0066896 -25.23388672 67.12207031 C-24.31918553 65.54894353 -23.39482409 63.9814252 -22.46533203 62.41699219 C-12.08496933 44.92633745 -6.13768781 28.8392193 -2 9 C-1.34 6.03 -0.68 3.06 0 0 Z " fill="#E9EAE9" transform="translate(466,507)"/>
<path d="M0 0 C11.88 0 23.76 0 36 0 C36.5775 3.320625 37.155 6.64125 37.75 10.0625 C40.13831203 23.33394915 42.9182412 35.86883219 49 48 C49.59526471 49.24667371 50.18890588 50.49412345 50.78125 51.7421875 C60.90838047 72.83930854 74.75706865 90.2699025 91 107 C92.04244873 108.07531982 92.04244873 108.07531982 93.10595703 109.17236328 C100.5385465 116.80479831 107.93542069 124.32522344 116.3359375 130.8984375 C118.30449737 132.45134836 120.20932541 134.0230382 122.1015625 135.6640625 C128.66549919 141.35543386 135.33956807 146.46246289 142.61328125 151.22265625 C143.40089844 151.80917969 144.18851563 152.39570312 145 153 C145 153.66 145 154.32 145 155 C143.59814453 156.2175293 143.59814453 156.2175293 141.6328125 157.57421875 C140.91730225 158.07324707 140.20179199 158.57227539 139.46459961 159.08642578 C138.69253174 159.61478027 137.92046387 160.14313477 137.125 160.6875 C136.34068604 161.23132324 135.55637207 161.77514648 134.74829102 162.33544922 C133.19111209 163.41499454 131.63230744 164.49219916 130.07177734 165.56689453 C127.67380673 167.22563687 125.30625154 168.92488057 122.9375 170.625 C106.60992204 181.97971158 89.60126301 190.9969355 71 198 C69.91847656 198.41894531 68.83695313 198.83789062 67.72265625 199.26953125 C46.33157123 207.2816499 22.96307648 213 0 213 C0 142.71 0 72.42 0 0 Z " fill="#E8E9E9" transform="translate(524,507)"/>
<path d="M0 0 C50.04978215 0 95.63170878 21.1878653 135.171875 50.25 C138.02903125 52.3350272 140.91922694 54.25342 144 56 C142.53245984 59.78299242 140.7315835 61.02229576 137.25 63 C130.53580679 67.09530633 124.87141856 72.10361295 118.99951172 77.28759766 C116.62988529 79.31697003 114.19377603 81.25392111 111.7578125 83.203125 C105.7695131 88.08357878 100.31088849 93.39323903 94.875 98.875 C93.95074219 99.79152344 93.02648437 100.70804687 92.07421875 101.65234375 C85.95269229 107.79113826 80.37681944 114.20363477 75 121 C74.1075297 122.09567065 73.2144518 123.19084719 72.3203125 124.28515625 C50.36161695 152.06564119 39.49983903 182.00160968 36 217 C24.12 217 12.24 217 0 217 C0 145.39 0 73.78 0 0 Z " fill="#E8E8E8" transform="translate(524,266)"/>
<path d="M0 0 C0 71.61 0 143.22 0 217 C-11.88 217 -23.76 217 -36 217 C-36.33 211.39 -36.66 205.78 -37 200 C-37.73652026 195.92747619 -38.50474174 192.09745457 -39.5625 188.125 C-39.82643555 187.11034668 -40.09037109 186.09569336 -40.36230469 185.05029297 C-46.61613745 162.00509998 -58.11943529 141.53718824 -73 123 C-73.6504126 122.17604736 -73.6504126 122.17604736 -74.31396484 121.33544922 C-84.84942015 108.04877467 -97.13383331 96.01377396 -110 85 C-111.09403757 84.04981017 -112.18780181 83.09930551 -113.28125 82.1484375 C-120.30488475 76.08561353 -127.42315438 70.15973758 -134.66992188 64.36474609 C-137.95971564 61.72110242 -141.09088885 59.07154883 -144 56 C-143.01386719 55.35998047 -143.01386719 55.35998047 -142.0078125 54.70703125 C-137.23571764 51.57089845 -132.51368132 48.40928003 -127.93359375 44.99609375 C-110.52566288 32.03164654 -92.25483088 21.82848003 -72 14 C-71.26813477 13.71431152 -70.53626953 13.42862305 -69.78222656 13.13427734 C-47.84981943 4.74657254 -23.42550862 0 0 0 Z " fill="#E7E8E8" transform="translate(501,266)"/>
<path d="M0 0 C3.75442077 1.65556386 6.85196865 4.05141942 10.0625 6.5625 C10.63613281 7.00795166 11.20976562 7.45340332 11.80078125 7.91235352 C23.7740287 17.24824157 35.41443221 27.0328443 46.8125 37.0625 C47.62332031 37.77535156 48.43414062 38.48820312 49.26953125 39.22265625 C51 41 51 41 51 43 C51.66 43 52.32 43 53 43 C54.375 44.36328125 54.375 44.36328125 56 46.3125 C58.80001469 49.62633182 61.70042956 52.79169635 64.6875 55.9375 C85.82925991 79.28953481 102 109.99467337 102 142 C48.87 141.67 -4.26 141.34 -59 141 C-59 135.62696241 -58.89521454 131.34457356 -58.046875 126.18359375 C-57.8420752 124.93239746 -57.63727539 123.68120117 -57.42626953 122.39208984 C-57.20185159 121.07372172 -56.9764094 119.75552758 -56.75 118.4375 C-56.63573669 117.76471008 -56.52147339 117.09192017 -56.40374756 116.39874268 C-54.76046672 106.76774543 -53.01466981 97.31152281 -50 88 C-49.64881104 86.90147705 -49.64881104 86.90147705 -49.29052734 85.78076172 C-43.67573387 68.40834429 -36.74868293 51.4832023 -27 36 C-26.48308594 35.14019531 -25.96617187 34.28039062 -25.43359375 33.39453125 C-18.14295346 21.50112528 -9.57935647 10.14284803 0 0 Z " fill="#EAEBEB" transform="translate(340,341)"/>
<path d="M0 0 C8.61845695 8.43733351 15.48339379 17.89106735 22 28 C22.69738281 29.03382813 23.39476562 30.06765625 24.11328125 31.1328125 C45.31512815 62.9920709 60 102.37727713 60 141 C6.87 141 -46.26 141 -101 141 C-97.97715645 113.79440809 -90.30401933 88.62124931 -73 67 C-72.35417969 66.1646875 -71.70835937 65.329375 -71.04296875 64.46875 C-62.08806996 53.02343557 -52.18997236 42.32225937 -41.14453125 32.8671875 C-38.64874126 30.69416816 -36.23682715 28.43991394 -33.8125 26.1875 C-23.26220866 16.58049468 -11.52433383 8.38423181 0 0 Z " fill="#E9EBEB" transform="translate(684,341)"/>
<path d="M0 0 C53.13 0 106.26 0 161 0 C155.10854906 33.38488864 139.68483188 61.80258594 116 86 C115.20529297 86.8151709 114.41058594 87.6303418 113.59179688 88.47021484 C110.88309333 91.23956849 108.162712 93.99689384 105.4375 96.75 C104.57535889 97.625354 103.71321777 98.50070801 102.82495117 99.40258789 C97.63225752 104.60118066 92.2580381 109.38286801 86.52416992 113.97705078 C83.25880988 116.59401309 80.09695433 119.31965091 76.9375 122.0625 C71.99125708 126.3380775 66.96663236 130.4760461 61.79296875 134.4765625 C59.89136245 135.8905779 59.89136245 135.8905779 59 138 C55.02634268 136.67544756 53.7483701 134.13860123 51.5 130.8125 C48.46428218 126.42085063 45.36822224 122.15161218 41.9777832 118.02685547 C19.70285925 90.82740853 6.45572783 56.70273621 1.25 22.1875 C1.12197998 21.35210693 0.99395996 20.51671387 0.86206055 19.65600586 C-0.07393072 12.93388675 0 6.95252813 0 0 Z " fill="#E9EAEA" transform="translate(281,507)"/>
<path d="M0 0 C52.8 0 105.6 0 160 0 C160 8.06977513 159.4712946 14.65788723 158 22.4375 C157.77924805 23.60619629 157.55849609 24.77489258 157.33105469 25.97900391 C151.97128104 53.08611352 142.96985513 78.71153765 128 102 C127.63438965 102.57121582 127.2687793 103.14243164 126.89208984 103.73095703 C121.93391151 111.3824668 116.34222171 118.44515726 110.51635742 125.44555664 C107.42443917 129.17030985 104.60538225 132.91844476 102 137 C98.55220914 135.49993609 96.17639467 133.49590738 93.4375 130.9375 C89.95307272 127.74301776 86.42430765 124.66168108 82.75 121.6875 C42.49543779 89.00893686 6.68941055 53.51528439 0 0 Z " fill="#E9EAEA" transform="translate(584,507)"/>
<path d="M0 0 C0.94140335 -0.00953201 1.8828067 -0.01906403 2.85273743 -0.02888489 C3.86837265 -0.02797348 4.88400787 -0.02706207 5.93041992 -0.02612305 C6.97735519 -0.03040817 8.02429047 -0.0346933 9.10295105 -0.03910828 C11.31960324 -0.04485445 13.53627429 -0.04534973 15.75292969 -0.04101562 C19.13729272 -0.03786377 22.5207749 -0.0612837 25.9050293 -0.08666992 C28.05932507 -0.08894375 30.21362319 -0.08964602 32.36791992 -0.08862305 C33.88226372 -0.10243767 33.88226372 -0.10243767 35.42720032 -0.11653137 C42.5615957 -0.06979614 46.91664409 0.94864164 52.22338867 6.0246582 C54.75238067 9.89252832 55.00829238 11.7378202 54.34838867 16.2746582 C52.14838867 20.8746582 52.14838867 20.8746582 49.34838867 22.2746582 C47.68533005 22.38529554 46.01795746 22.43380735 44.35131836 22.45166016 C43.30973572 22.46449539 42.26815308 22.47733063 41.19500732 22.49055481 C40.06484192 22.49794174 38.93467651 22.50532867 37.77026367 22.51293945 C36.61093323 22.5210112 35.45160278 22.52908295 34.25714111 22.53739929 C31.79912821 22.55124955 29.341096 22.56196747 26.88305664 22.56982422 C23.12763881 22.58702424 19.37310398 22.63090211 15.61791992 22.67504883 C13.23120765 22.68517662 10.84448789 22.69369245 8.45776367 22.70043945 C7.33569519 22.71794754 6.21362671 22.73545563 5.05755615 22.75349426 C-1.14419419 22.73628331 -4.99010683 22.534525 -9.65161133 18.2746582 C-11.97069503 14.64142707 -13.53753381 11.59353031 -12.65161133 7.2746582 C-8.89738954 2.9116437 -5.86018356 0.03261063 0 0 Z " fill="#161819" transform="translate(336.651611328125,539.725341796875)"/>
<path d="M0 0 C1.62727776 -0.01925285 1.62727776 -0.01925285 3.28742981 -0.03889465 C5.05300484 -0.04997505 5.05300484 -0.04997505 6.85424805 -0.0612793 C8.06034225 -0.06935104 9.26643646 -0.07742279 10.50907898 -0.08573914 C13.06544554 -0.09958904 15.62183066 -0.11030712 18.17822266 -0.11816406 C22.08946734 -0.1353814 25.99986802 -0.17926181 29.91088867 -0.22338867 C32.39200223 -0.23351485 34.873123 -0.24203118 37.35424805 -0.2487793 C38.52522537 -0.26628738 39.6962027 -0.28379547 40.90266418 -0.30183411 C49.03932376 -0.28008124 49.03932376 -0.28008124 52.99560547 2.08642578 C55.74759485 5.26877353 56.83220862 6.82613612 56.7409668 11.11450195 C55.3958951 15.50840281 52.85029297 17.93641641 48.95152283 20.29946899 C46.41489266 21.33574391 44.48455916 21.44386896 41.74707031 21.4675293 C40.74245255 21.480289 39.73783478 21.49304871 38.70277405 21.50619507 C37.62354172 21.50842072 36.54430939 21.51064636 35.43237305 21.51293945 C33.76065285 21.52292465 33.76065285 21.52292465 32.05516052 21.53311157 C29.6990626 21.54323309 27.34293604 21.54792875 24.98681641 21.54760742 C21.38290204 21.5519814 17.78021145 21.58831036 14.17651367 21.6262207 C11.88680432 21.63208875 9.59708915 21.63605822 7.30737305 21.63793945 C6.23016495 21.65231049 5.15295685 21.66668152 4.04310608 21.68148804 C-3.44523908 21.63576557 -3.44523908 21.63576557 -7.33349609 19.26147461 C-10.27049928 15.97538717 -11.08768609 14.1747672 -11.5715332 9.73950195 C-11.13531682 5.59544631 -10.10523048 4.08569923 -7.1965332 1.17700195 C-4.65584515 -0.09334207 -2.84441712 0.02924247 0 0 Z " fill="#151717" transform="translate(335.196533203125,423.822998046875)"/>
<path d="M0 0 C1.0583757 -0.01929062 2.1167514 -0.03858124 3.2071991 -0.05845642 C8.05964837 -0.11615456 12.91194757 -0.1654911 17.76464844 -0.19628906 C20.32240303 -0.21786185 22.88008394 -0.2519555 25.4375 -0.29882812 C29.12574231 -0.36582639 32.81245565 -0.39329179 36.5012207 -0.41235352 C38.20939217 -0.4540995 38.20939217 -0.4540995 39.95207214 -0.49668884 C46.35331746 -0.48015436 50.12081013 0.09216208 54.74523926 4.6857605 C56.35017867 6.75410317 56.83794211 8.1508569 56.73950195 10.77124023 C56.74594727 11.4944043 56.75239258 12.21756836 56.7590332 12.96264648 C55.40719842 16.61196572 53.36219461 18.57577108 49.92700195 20.20874023 C45.51525437 20.98151946 41.14815282 21.00162479 36.67700195 21.02124023 C35.4053418 21.04275146 34.13368164 21.0642627 32.82348633 21.08642578 C30.17779783 21.12655664 27.53191716 21.15547003 24.88598633 21.17358398 C21.05910999 21.2075671 17.23699802 21.29519372 13.41137695 21.39624023 C11.08329184 21.44007914 8.7551664 21.48183899 6.42700195 21.52124023 C5.34257813 21.5512915 4.2581543 21.58134277 3.14086914 21.61230469 C-4.31046889 21.66644648 -4.31046889 21.66644648 -8.22924805 19.31420898 C-11.36055545 15.73841515 -11.40312306 13.0852672 -11.3659668 8.47045898 C-10.93644004 5.15451243 -9.46375451 3.45886396 -7.07299805 1.20874023 C-4.5684679 -0.04352484 -2.80312596 0.04766177 0 0 Z " fill="#151718" transform="translate(647.072998046875,540.791259765625)"/>
<path d="M0 0 C1.11851349 -0.01929062 2.23702698 -0.03858124 3.38943481 -0.05845642 C8.52926919 -0.11602498 13.66901664 -0.16582445 18.80908203 -0.19628906 C21.51952894 -0.21405105 24.22892522 -0.24877722 26.93896484 -0.29882812 C30.84227684 -0.36580606 34.74414364 -0.39329089 38.64794922 -0.41235352 C39.85548859 -0.44018417 41.06302795 -0.46801483 42.30715942 -0.49668884 C48.83523161 -0.48076502 52.88060227 -0.0597509 57.62789917 4.62510681 C58.76513672 6.20874023 58.76513672 6.20874023 59.45263672 9.20874023 C58.29889447 14.24325186 56.03600553 17.36149436 51.76513672 20.20874023 C49.31204224 20.48962402 49.31204224 20.48962402 46.36328125 20.53100586 C45.25848419 20.55022095 44.15368713 20.56943604 43.01541138 20.5892334 C41.22476761 20.60198303 41.22476761 20.60198303 39.39794922 20.61499023 C38.17107391 20.62639038 36.94419861 20.63779053 35.68014526 20.64953613 C33.08269708 20.66844092 30.48520087 20.68150601 27.88769531 20.68920898 C23.91239908 20.70863147 19.93916647 20.77067146 15.96435547 20.83374023 C13.44223235 20.84679941 10.92009442 20.8573007 8.39794922 20.86499023 C7.20823517 20.88968384 6.01852112 20.91437744 4.79275513 20.93981934 C-3.22030612 20.89653258 -3.22030612 20.89653258 -6.08917236 18.95166016 C-9.23114563 15.35899228 -10.31906792 11.92420023 -10.23486328 7.20874023 C-7.13780515 1.6340356 -6.18838419 0.09931679 0 0 Z " fill="#141616" transform="translate(644.23486328125,423.791259765625)"/>
<path d="M0 0 C9.24 0 18.48 0 28 0 C28 0.33 28 0.66 28 1 C25.03 1 22.06 1 19 1 C19.0721875 2.29292969 19.144375 3.58585938 19.21875 4.91796875 C19.50986883 10.27734248 19.76650544 15.63781789 20 21 C20.03158203 21.70705078 20.06316406 22.41410156 20.09570312 23.14257812 C20.16627562 24.90689042 20.20932593 26.67224535 20.25 28.4375 C20.27578125 29.40558594 20.3015625 30.37367188 20.328125 31.37109375 C19.92703163 34.58461567 18.90736849 36.4018789 17 39 C12.99366249 41.67089167 9.71008572 41.70693873 5 41 C1.96784325 38.80168636 1.18345602 37.55036806 0 34 C-0.08481773 31.41369776 -0.11598229 28.85521944 -0.09765625 26.26953125 C-0.0962413 25.51911057 -0.09482635 24.76868988 -0.09336853 23.99552917 C-0.0877756 21.6011454 -0.07522444 19.20685547 -0.0625 16.8125 C-0.05748408 15.18815239 -0.05292134 13.56380332 -0.04882812 11.93945312 C-0.0386598 7.95957025 -0.01908312 3.97989007 0 0 Z " fill="#6B6C6C" transform="translate(503,744)"/>
<path d="M0 0 C52.8 0 105.6 0 160 0 C159.67 2.97 159.34 5.94 159 9 C158.01 8.01 158.01 8.01 157 7 C157.375 4.875 157.375 4.875 158 3 C152.72357394 2.2628011 147.64788873 1.87186669 142.30859375 1.8671875 C141.60082291 1.86623077 140.89305206 1.86527405 140.16383362 1.86428833 C138.67391877 1.86361259 137.18400087 1.86542424 135.6940918 1.86962891 C133.46721397 1.87492928 131.24054308 1.86969235 129.01367188 1.86328125 C122.04987041 1.86072062 115.1595787 2.00880481 108.2109375 2.53515625 C101.48169209 3.03451058 94.91933267 2.92334745 88.1875 2.5625 C80.35234629 2.20447093 72.53168224 1.88736343 64.6875 1.875 C63.97166748 1.87056885 63.25583496 1.8661377 62.51831055 1.86157227 C58.86780757 1.87178781 55.56525931 2.28212207 52 3 C49.6484375 2.87890625 49.6484375 2.87890625 47.375 2.5625 C44.85132549 2.22227767 42.55692729 2 40 2 C39.67 2.66 39.34 3.32 39 4 C39 3.34 39 2.68 39 2 C34.06973493 2.0441119 29.14075563 2.11389864 24.21118164 2.20751953 C22.5342024 2.23574768 20.85708965 2.2569531 19.17993164 2.27099609 C16.76899782 2.29240125 14.35967216 2.33903426 11.94921875 2.390625 C10.82407112 2.39246796 10.82407112 2.39246796 9.67619324 2.39434814 C5.35170447 2.50213254 5.35170447 2.50213254 2.00317383 5.03808594 C1.67212646 5.68551758 1.3410791 6.33294922 1 7 C0.67 4.69 0.34 2.38 0 0 Z " fill="#F4FAFC" transform="translate(584,507)"/>
<path d="M0 0 C0.94875 0.350625 1.8975 0.70125 2.875 1.0625 C0.875 4.0625 0.875 4.0625 -1.5625 4.5625 C-2.408125 4.7275 -3.25375 4.8925 -4.125 5.0625 C-5.14604551 6.04100195 -6.1456121 7.04230427 -7.125 8.0625 C-7.91261719 8.30871094 -8.70023438 8.55492187 -9.51171875 8.80859375 C-12.96694391 10.46648205 -13.74263204 12.29776408 -15.4375 15.6875 C-15.94925781 16.69039063 -16.46101562 17.69328125 -16.98828125 18.7265625 C-17.36339844 19.49742187 -17.73851562 20.26828125 -18.125 21.0625 C-20.105 21.0625 -22.085 21.0625 -24.125 21.0625 C-24.785 22.3825 -25.445 23.7025 -26.125 25.0625 C-26.455 24.4025 -26.785 23.7425 -27.125 23.0625 C-22.45094443 17.47643358 -17.45214303 12.27931201 -12.3125 7.125 C-11.64210693 6.45009521 -10.97171387 5.77519043 -10.28100586 5.07983398 C-9.64557861 4.44634033 -9.01015137 3.81284668 -8.35546875 3.16015625 C-7.78207764 2.58789307 -7.20868652 2.01562988 -6.61791992 1.42602539 C-3.99913261 -0.96578608 -3.55125631 -1.06537689 0 0 Z " fill="#0E1010" transform="translate(725.125,272.9375)"/>
<path d="M0 0 C13.86 0 27.72 0 42 0 C42 2.97 42 5.94 42 9 C41.67 9 41.34 9 41 9 C41 6.69 41 4.38 41 2 C40.44538086 2.03552979 39.89076172 2.07105957 39.31933594 2.10766602 C36.79657727 2.26566815 34.27334539 2.41417563 31.75 2.5625 C30.87730469 2.61857422 30.00460938 2.67464844 29.10546875 2.73242188 C28.26113281 2.78076172 27.41679687 2.82910156 26.546875 2.87890625 C25.77182617 2.9260376 24.99677734 2.97316895 24.19824219 3.02172852 C21.95044515 2.99951018 20.16407975 2.57453445 18 2 C16.560265 1.85966422 15.11662851 1.75583143 13.671875 1.68359375 C12.47304687 1.62075195 12.47304687 1.62075195 11.25 1.55664062 C10.0125 1.49766602 10.0125 1.49766602 8.75 1.4375 C7.90953125 1.39431641 7.0690625 1.35113281 6.203125 1.30664062 C4.13559329 1.20091457 2.06781719 1.09998705 0 1 C0 0.67 0 0.34 0 0 Z " fill="#F4F9FA" transform="translate(214,507)"/>
<path d="M0 0 C-0.680625 0.66 -1.36125 1.32 -2.0625 2 C-5.56725347 5.49468234 -8.77221788 9.25130779 -12 13 C-12.66 12.67 -13.32 12.34 -14 12 C-13.92593401 8.88922823 -13.58220726 6.71408847 -11.5859375 4.265625 C-7.81619886 0.77820159 -5.32907716 -0.77986495 0 0 Z " fill="#EFF0F1" transform="translate(352,296)"/>
<path d="M0 0 C0.33 1.32 0.66 2.64 1 4 C0.21625 4.12375 -0.5675 4.2475 -1.375 4.375 C-4.14057822 4.79117993 -4.14057822 4.79117993 -6 7 C-7.1446875 7.680625 -7.1446875 7.680625 -8.3125 8.375 C-11.08143891 10.04924213 -13.51110275 11.93777085 -16 14 C-16.66 13.67 -17.32 13.34 -18 13 C-15.87754286 11.01804354 -13.75219732 9.03935743 -11.625 7.0625 C-11.02171875 6.49853516 -10.4184375 5.93457031 -9.796875 5.35351562 C-9.21679688 4.81533203 -8.63671875 4.27714844 -8.0390625 3.72265625 C-7.50490723 3.22515869 -6.97075195 2.72766113 -6.42041016 2.21508789 C-4.11549075 0.24334779 -3.10801323 0 0 0 Z " fill="#DDDEDF" transform="translate(661,361)"/>
<path d="M0 0 C0 3.99904969 -1.72586967 5.80200422 -4 9 C-3.34 9.66 -2.68 10.32 -2 11 C-3.32 11.33 -4.64 11.66 -6 12 C-6 13.32 -6 14.64 -6 16 C-9.16115776 14.63016497 -9.9927092 14.0109362 -12 11 C-8.04 7.37 -4.08 3.74 0 0 Z " fill="#E9EAEF" transform="translate(712,311)"/>
<path d="M0 0 C0.33 0.66 0.66 1.32 1 2 C1.99 2 2.98 2 4 2 C4 2.99 4 3.98 4 5 C1.01944414 7.42603384 -1.00323092 8.91332443 -4.875 9.25 C-5.57625 9.1675 -6.2775 9.085 -7 9 C-6.67 6.69 -6.34 4.38 -6 2 C-5.01 2 -4.02 2 -3 2 C-2.01 1.34 -1.02 0.68 0 0 Z " fill="#EFF1F0" transform="translate(328,536)"/>
<path d="M0 0 C0.66 0.33 1.32 0.66 2 1 C2 1.99 2 2.98 2 4 C-0.52725945 6.30426597 -3.1998405 8.13050808 -6.0625 10 C-8.72142883 11.81033452 -10.81909273 13.65133063 -13 16 C-13.33 15.01 -13.66 14.02 -14 13 C-9.38 8.71 -4.76 4.42 0 0 Z " fill="#EAEBEE" transform="translate(337,678)"/>
<path d="M0 0 C0.99 0.33 1.98 0.66 3 1 C-1 5 -5 9 -9 13 C-9.66 12.01 -10.32 11.02 -11 10 C-2.81609195 1.6091954 -2.81609195 1.6091954 0 0 Z " fill="#0C0E0D" transform="translate(302,682)"/>
<path d="M0 0 C1.12588014 0.95729916 2.2506715 1.91587895 3.375 2.875 C4.00148438 3.40867187 4.62796875 3.94234375 5.2734375 4.4921875 C6.55836651 5.61432007 7.79371975 6.79371975 9 8 C8.67 8.99 8.34 9.98 8 11 C7.67 10.01 7.34 9.02 7 8 C4.69 8.33 2.38 8.66 0 9 C-0.66 8.01 -1.32 7.02 -2 6 C-1.67 5.38125 -1.34 4.7625 -1 4.125 C0.14193235 2.08981656 0.14193235 2.08981656 0 0 Z " fill="#EFF0EF" transform="translate(688,677)"/>
<path d="M0 0 C0.33 0 0.66 0 1 0 C1.32521241 4.6613779 0.81951666 7.24064446 -2 11 C-5.20380017 13.13586678 -6.01939967 13.23132175 -9.6875 13.125 C-10.89986328 13.09792969 -10.89986328 13.09792969 -12.13671875 13.0703125 C-13.05904297 13.03550781 -13.05904297 13.03550781 -14 13 C-13.67 12.01 -13.34 11.02 -13 10 C-12.67 10.66 -12.34 11.32 -12 12 C-8.56661484 10.79367548 -6.49635415 9.61522816 -4 7 C-3.34 7 -2.68 7 -2 7 C-1.34 4.69 -0.68 2.38 0 0 Z " fill="#444645" transform="translate(522,772)"/>
<path d="M0 0 C6.41069287 5.27101414 12.18590512 11.09128152 18 17 C17.34 17.33 16.68 17.66 16 18 C11.67837249 14.5094547 7.89660758 10.89492632 4.35546875 6.61328125 C2.68287867 4.62256164 0.87335651 2.80130434 -1 1 C-0.67 0.67 -0.34 0.34 0 0 Z " fill="#0C0D0F" transform="translate(623,589)"/>
<path d="M0 0 C0.99 0 1.98 0 3 0 C2.67 0.66 2.34 1.32 2 2 C1.34 1.34 0.68 0.68 0 0 Z M-1 1 C0 4 0 4 -1.75 7.5625 C-3.34738472 10.33408171 -4.19678044 11.13118696 -7 13 C-7.99 12.67 -8.98 12.34 -10 12 C-8.87672229 10.54033966 -7.75131706 9.08231636 -6.625 7.625 C-5.99851562 6.81289063 -5.37203125 6.00078125 -4.7265625 5.1640625 C-3 3 -3 3 -1 1 Z " fill="#EEEFF3" transform="translate(428,593)"/>
<path d="M0 0 C0.99 0.33 1.98 0.66 3 1 C3.99 1 4.98 1 6 1 C4.60667426 4.36720387 3.0210714 5.9859524 0 8 C-1.32 6.35 -2.64 4.7 -4 3 C-2.1875 1.4375 -2.1875 1.4375 0 0 Z " fill="#DCE1E4" transform="translate(361,657)"/>
<path d="M0 0 C0.99 0.33 1.98 0.66 3 1 C2.01 1.495 2.01 1.495 1 2 C0.67 2.99 0.34 3.98 0 5 C-2.0625 5.6875 -2.0625 5.6875 -4 6 C-4.99 9.465 -4.99 9.465 -6 13 C-6.33 13 -6.66 13 -7 13 C-7.34751969 10.08083462 -7.53280018 7.86804524 -5.95703125 5.30078125 C-4.15362765 3.11660035 -2.55587616 1.27793808 0 0 Z " fill="#0D0E0D" transform="translate(209,484)"/>
<path d="M0 0 C6.50263274 -0.5780118 12.16196203 1.10518515 18 4 C18.99 5.485 18.99 5.485 20 7 C13.33333333 5 6.66666667 3 0 1 C0 0.67 0 0.34 0 0 Z " fill="#242425" transform="translate(577,274)"/>
<path d="M0 0 C1.32 0.99 2.64 1.98 4 3 C3.34 3 2.68 3 2 3 C2 3.66 2 4.32 2 5 C3.32 5.66 4.64 6.32 6 7 C6 7.66 6 8.32 6 9 C7.32 9.33 8.64 9.66 10 10 C9.67 10.66 9.34 11.32 9 12 C5.84164893 10.60249952 3.67727175 8.94801766 1.25 6.5 C0.63640625 5.8915625 0.0228125 5.283125 -0.609375 4.65625 C-2 3 -2 3 -2 1 C-1.34 0.67 -0.68 0.34 0 0 Z " fill="#E8E9EC" transform="translate(721,675)"/>
<path d="M0 0 C-0.66 1.65 -1.32 3.3 -2 5 C-4.4375 4.625 -4.4375 4.625 -7 4 C-7.33 3.34 -7.66 2.68 -8 2 C-11.02934491 1.34227572 -11.02934491 1.34227572 -14 1 C-14 0.67 -14 0.34 -14 0 C-4.58997722 -1.33257403 -4.58997722 -1.33257403 0 0 Z " fill="#D9DCDB" transform="translate(391,562)"/>
<path d="M0 0 C-1.56245611 3.83511953 -4.10365784 6.10365784 -7 9 C-7.350625 9.7425 -7.70125 10.485 -8.0625 11.25 C-9 13 -9 13 -11.125 13.75 C-12.053125 13.87375 -12.053125 13.87375 -13 14 C-12.51061681 9.72538761 -10.04257174 7.67448934 -7.0625 4.75 C-6.16660156 3.85796875 -5.27070313 2.9659375 -4.34765625 2.046875 C-2 0 -2 0 0 0 Z " fill="#ECEFF1" transform="translate(321,695)"/>
<path d="M0 0 C0.66 0 1.32 0 2 0 C3 5.75 3 5.75 3 8 C4.65 8.33 6.3 8.66 8 9 C7.34 9.66 6.68 10.32 6 11 C5.01 11 4.02 11 3 11 C2.67 11.66 2.34 12.32 2 13 C-0.28571429 4.57142857 -0.28571429 4.57142857 0 0 Z " fill="#F1F2F3" transform="translate(736,272)"/>
<path d="M0 0 C5.75 0.75 5.75 0.75 8 3 C7.01 3 6.02 3 5 3 C5 3.66 5 4.32 5 5 C3.02 5.99 3.02 5.99 1 7 C-0.0625 4.625 -0.0625 4.625 -1 2 C-0.67 1.34 -0.34 0.68 0 0 Z " fill="#222323" transform="translate(681,674)"/>
<path d="M0 0 C3.3 0 6.6 0 10 0 C9.67 2.97 9.34 5.94 9 9 C8.34 8.34 7.68 7.68 7 7 C7.375 4.875 7.375 4.875 8 3 C5.36 2.67 2.72 2.34 0 2 C0 1.34 0 0.68 0 0 Z " fill="#F6F8F8" transform="translate(734,507)"/>
<path d="M0 0 C1.65 0.33 3.3 0.66 5 1 C2.525 4.465 2.525 4.465 0 8 C-0.99 7.01 -1.98 6.02 -3 5 C-2.01 3.35 -1.02 1.7 0 0 Z " fill="#E9EDED" transform="translate(318,659)"/>
<path d="M0 0 C0.66 0 1.32 0 2 0 C2.69848264 1.93356782 3.38344814 3.87202298 4.0625 5.8125 C4.44535156 6.89144531 4.82820313 7.97039063 5.22265625 9.08203125 C6 12 6 12 5 15 C2.68994131 12.68994131 2.27825897 11.16916343 1.375 8.0625 C1.11460937 7.18722656 0.85421875 6.31195312 0.5859375 5.41015625 C0 3 0 3 0 0 Z " fill="#1D1E1F" transform="translate(288,559)"/>
<path d="M0 0 C1.32 0.66 2.64 1.32 4 2 C4.33 1.34 4.66 0.68 5 0 C5.66 0.33 6.32 0.66 7 1 C7 1.99 7 2.98 7 4 C3.38026598 5.31626692 0.90432869 6 -3 6 C-2 4 -1 2 0 0 Z " fill="#F2F3F3" transform="translate(639,537)"/>
<path d="M0 0 C1.80030122 2.70045182 2.93377066 5.06677881 4.125 8.0625 C4.47820313 8.94035156 4.83140625 9.81820313 5.1953125 10.72265625 C6 13 6 13 6 15 C4.68 14.67 3.36 14.34 2 14 C1.855625 13.05125 1.71125 12.1025 1.5625 11.125 C1.17064601 8.1065506 1.17064601 8.1065506 0 6 C-0.039992 4.00039988 -0.04346799 1.99952758 0 0 Z " fill="#DBDBDD" transform="translate(726,407)"/>
<path d="M0 0 C0.99 0.33 1.98 0.66 3 1 C1.61811547 4.21043882 0.07578097 6.04936365 -2.625 8.25 C-3.25664063 8.77078125 -3.88828125 9.2915625 -4.5390625 9.828125 C-5.02117188 10.21484375 -5.50328125 10.6015625 -6 11 C-6 10.01 -6 9.02 -6 8 C-5.34 8 -4.68 8 -4 8 C-4 6.68 -4 5.36 -4 4 C-2 1.75 -2 1.75 0 0 Z " fill="#262729" transform="translate(714,304)"/>
<path d="M0 0 C2 2 2 2 2.13525391 4.52197266 C2.08288574 5.5588623 2.03051758 6.59575195 1.9765625 7.6640625 C1.925 8.78554688 1.8734375 9.90703125 1.8203125 11.0625 C1.75585938 12.238125 1.69140625 13.41375 1.625 14.625 C1.56828125 15.80835938 1.5115625 16.99171875 1.453125 18.2109375 C1.31133757 21.14121112 1.15989667 24.07066772 1 27 C0.67 27 0.34 27 0 27 C-0.19582583 22.68783519 -0.38027074 18.3752591 -0.5625 14.0625 C-0.61857422 12.83080078 -0.67464844 11.59910156 -0.73242188 10.33007812 C-0.78076172 9.16025391 -0.82910156 7.99042969 -0.87890625 6.78515625 C-0.9260376 5.70113525 -0.97316895 4.61711426 -1.02172852 3.50024414 C-1 1 -1 1 0 0 Z " fill="#0D0E10" transform="translate(502,267)"/>
<path d="M0 0 C1.9375 0.5625 1.9375 0.5625 4 2 C4.75 5.625 4.75 5.625 5 9 C3 6 3 6 3 4 C1.35 4.66 -0.3 5.32 -2 6 C-1.125 1.125 -1.125 1.125 0 0 Z " fill="#0C0E10" transform="translate(731,690)"/>
<path d="M0 0 C-1.38188453 3.21043882 -2.92421903 5.04936365 -5.625 7.25 C-6.57246094 8.03117188 -6.57246094 8.03117188 -7.5390625 8.828125 C-8.02117187 9.21484375 -8.50328125 9.6015625 -9 10 C-8.67 8.02 -8.34 6.04 -8 4 C-7.01 4 -6.02 4 -5 4 C-5 3.34 -5 2.68 -5 2 C-2 0 -2 0 0 0 Z " fill="#28292B" transform="translate(337,677)"/>
<path d="M0 0 C1.485 0.99 1.485 0.99 3 2 C3 4.62834278 2.80210238 7.08186701 2.5 9.6875 C2.4071875 10.49574219 2.314375 11.30398438 2.21875 12.13671875 C2.1465625 12.75160156 2.074375 13.36648438 2 14 C0 12 0 12 -0.1953125 9.1796875 C-0.17210937 8.08914063 -0.14890625 6.99859375 -0.125 5.875 C-0.10695313 4.77929688 -0.08890625 3.68359375 -0.0703125 2.5546875 C-0.04710937 1.71164062 -0.02390625 0.86859375 0 0 Z " fill="#E0E2E6" transform="translate(281,507)"/>
<path d="M0 0 C0.99 0.33 1.98 0.66 3 1 C3.9360342 4.79267192 3.98276252 7.93674565 3.5625 11.8125 C3.40974609 13.27623047 3.40974609 13.27623047 3.25390625 14.76953125 C3.17011719 15.50558594 3.08632813 16.24164063 3 17 C2.67 17 2.34 17 2 17 C1.34 11.39 0.68 5.78 0 0 Z " fill="#252427" transform="translate(739,445)"/>
<path d="M0 0 C0.433125 0.9590625 0.433125 0.9590625 0.875 1.9375 C1.82823451 4.15206079 1.82823451 4.15206079 4 5 C1.625 6.0625 1.625 6.0625 -1 7 C-1.66 6.67 -2.32 6.34 -3 6 C-3 4.35 -3 2.7 -3 1 C-2.01 0.67 -1.02 0.34 0 0 Z " fill="#EFF3FA" transform="translate(732,624)"/>
<path d="M0 0 C0.99 0.33 1.98 0.66 3 1 C1.02 3.31 -0.96 5.62 -3 8 C-3.66 6.68 -4.32 5.36 -5 4 C-2.6875 1.9375 -2.6875 1.9375 0 0 Z " fill="#292A2D" transform="translate(417,602)"/>
<path d="M0 0 C1.65 0.33 3.3 0.66 5 1 C3.52341675 5.42974974 0.06274989 6.96862506 -4 9 C-3.71125 8.443125 -3.4225 7.88625 -3.125 7.3125 C-1.9586747 4.91505355 -0.9660119 2.48403061 0 0 Z " fill="#ECEEED" transform="translate(207,480)"/>
<path d="M0 0 C1.09570312 0.19464844 2.19140625 0.38929688 3.3203125 0.58984375 C4.16335938 0.74582031 5.00640625 0.90179687 5.875 1.0625 C2.62870888 2.81315381 0.57948875 3.25247378 -3.125 3.0625 C-4.115 3.0625 -5.105 3.0625 -6.125 3.0625 C-6.785 2.0725 -7.445 1.0825 -8.125 0.0625 C-5.2144446 -1.3927777 -3.16650948 -0.57266661 0 0 Z " fill="#F0F1F2" transform="translate(723.125,707.9375)"/>
<path d="M0 0 C2 4 2 4 2.9375 6.6875 C3.288125 7.450625 3.63875 8.21375 4 9 C4.99 9.33 5.98 9.66 7 10 C6 11 6 11 2.9375 11.0625 C1.968125 11.041875 0.99875 11.02125 0 11 C0 7.37 0 3.74 0 0 Z " fill="#F3F6F5" transform="translate(769,472)"/>
<path d="M0 0 C0 0.66 0 1.32 0 2 C0.99 2 1.98 2 3 2 C3 2.66 3 3.32 3 4 C-1.37934119 3.48041715 -5.68803391 2.94324258 -10 2 C-10 1.67 -10 1.34 -10 1 C-6.59437148 0.22157062 -3.49234244 -0.09978121 0 0 Z " fill="#292B2A" transform="translate(570,269)"/>
<path d="M0 0 C1.98 0 3.96 0 6 0 C5.01 0.495 5.01 0.495 4 1 C4.33 2.32 4.66 3.64 5 5 C3.35 5.66 1.7 6.32 0 7 C0 4.69 0 2.38 0 0 Z " fill="#EEF2F4" transform="translate(769,506)"/>
<path d="M0 0 C7.48291572 6.15034169 7.48291572 6.15034169 10 10 C9.34 10.66 8.68 11.32 8 12 C7.4225 11.0925 6.845 10.185 6.25 9.25 C4.16397832 6.02981424 4.16397832 6.02981424 1.75 3.75 C1.1725 3.1725 0.595 2.595 0 2 C0 1.34 0 0.68 0 0 Z " fill="#0C0F10" transform="translate(411,370)"/>
<path d="M0 0 C-0.28875 0.66 -0.5775 1.32 -0.875 2 C-2.23437299 5.62499465 -3.10624639 9.23346693 -4 13 C-4.33 13 -4.66 13 -5 13 C-5 9.04 -5 5.08 -5 1 C-3 0 -3 0 0 0 Z " fill="#F0F1F1" transform="translate(293,273)"/>
<path d="M0 0 C2.75 0.25 2.75 0.25 5 1 C4.67 1.99 4.34 2.98 4 4 C-1.75 5.125 -1.75 5.125 -4 4 C-2.3125 1.9375 -2.3125 1.9375 0 0 Z " fill="#111211" transform="translate(360,626)"/>
<path d="M0 0 C0.66 0 1.32 0 2 0 C3.13764351 4.26616316 4 7.56486311 4 12 C3.34 12 2.68 12 2 12 C0.86235649 7.73383684 0 4.43513689 0 0 Z " fill="#262828" transform="translate(760,434)"/>
<path d="M0 0 C0.66 0.99 1.32 1.98 2 3 C1.175 3.61875 0.35 4.2375 -0.5 4.875 C-1.7375 5.926875 -1.7375 5.926875 -3 7 C-3 7.66 -3 8.32 -3 9 C-4.32 8.34 -5.64 7.68 -7 7 C-4.69 4.69 -2.38 2.38 0 0 Z " fill="#E1E2E6" transform="translate(635,381)"/>
<path d="M0 0 C0.33 1.32 0.66 2.64 1 4 C-1.31 4.33 -3.62 4.66 -6 5 C-5.625 3.0625 -5.625 3.0625 -5 1 C-3 0 -3 0 0 0 Z " fill="#E3E5E4" transform="translate(661,361)"/>
<path d="M0 0 C0 3 0 3 -1.53125 4.60546875 C-2.1809375 5.12753906 -2.830625 5.64960938 -3.5 6.1875 C-4.1496875 6.71730469 -4.799375 7.24710937 -5.46875 7.79296875 C-5.9740625 8.19128906 -6.479375 8.58960938 -7 9 C-7.33 8.01 -7.66 7.02 -8 6 C-7.34 6 -6.68 6 -6 6 C-6 5.34 -6 4.68 -6 4 C-5.34 4 -4.68 4 -4 4 C-4 3.34 -4 2.68 -4 2 C-2.68 1.34 -1.36 0.68 0 0 Z " fill="#F2F3F3" transform="translate(698,292)"/>
<path d="M0 0 C0 3.39593478 -0.52165948 4.06619881 -2.5 6.6875 C-2.9640625 7.31011719 -3.428125 7.93273437 -3.90625 8.57421875 C-4.2671875 9.04472656 -4.628125 9.51523437 -5 10 C-5.33 9.34 -5.66 8.68 -6 8 C-6.66 7.67 -7.32 7.34 -8 7 C-5.36 4.69 -2.72 2.38 0 0 Z " fill="#E1E1E3" transform="translate(404,619)"/>
<path d="M0 0 C0.99 0.33 1.98 0.66 3 1 C3 2.65 3 4.3 3 6 C1.68 6.33 0.36 6.66 -1 7 C-1 3 -1 3 0 0 Z " fill="#1D1E1F" transform="translate(410,605)"/>
<path d="M0 0 C4.03384128 2.07143201 5.92856799 3.96615872 8 8 C7.01 8 6.02 8 5 8 C4.67 7.01 4.34 6.02 4 5 C3.34 5 2.68 5 2 5 C2 4.34 2 3.68 2 3 C1.34 3 0.68 3 0 3 C0 2.01 0 1.02 0 0 Z " fill="#0F1112" transform="translate(606,570)"/>
<path d="M0 0 C1.72217143 2.63390925 2.00455315 3.92411417 1.8125 7.125 C1 10 1 10 -2 12 C-1.85831863 10.56208484 -1.71148957 9.1246763 -1.5625 7.6875 C-1.48128906 6.88699219 -1.40007813 6.08648437 -1.31640625 5.26171875 C-1 3 -1 3 0 0 Z " fill="#DDDFDE" transform="translate(562,448)"/>
<path d="M0 0 C0.66 0.33 1.32 0.66 2 1 C1.25 2.9375 1.25 2.9375 0 5 C-1.33333333 5.33333333 -2.66666667 5.66666667 -4 6 C-5.28436734 7.9837767 -5.28436734 7.9837767 -6 10 C-6.33 9.34 -6.66 8.68 -7 8 C-4.69 5.36 -2.38 2.72 0 0 Z " fill="#07080A" transform="translate(705,288)"/>
<path d="M0 0 C0.66 0 1.32 0 2 0 C1.50769231 6.4 1.50769231 6.4 -1.0625 9.4375 C-1.701875 9.953125 -2.34125 10.46875 -3 11 C-2.69078116 9.54096742 -2.37751201 8.08279278 -2.0625 6.625 C-1.88847656 5.81289063 -1.71445312 5.00078125 -1.53515625 4.1640625 C-1 2 -1 2 0 0 Z " fill="#DCDDE1" transform="translate(297,409)"/>
<path d="M0 0 C3.21043882 1.38188453 5.04936365 2.92421903 7.25 5.625 C8.03117187 6.57246094 8.03117187 6.57246094 8.828125 7.5390625 C9.40820312 8.26222656 9.40820312 8.26222656 10 9 C9.01 9.495 9.01 9.495 8 10 C6.33333333 8.33333333 4.66666667 6.66666667 3 5 C2.401875 4.443125 1.80375 3.88625 1.1875 3.3125 C0 2 0 2 0 0 Z " fill="#090A0D" transform="translate(401,361)"/>
<path d="M0 0 C0.99 0 1.98 0 3 0 C3 0.66 3 1.32 3 2 C3.99 2 4.98 2 6 2 C6 1.34 6 0.68 6 0 C8 1 8 1 9 3 C8.67 3.66 8.34 4.32 8 5 C2.25 3.125 2.25 3.125 0 2 C0 1.34 0 0.68 0 0 Z " fill="#1F201F" transform="translate(394,714)"/>
<path d="M0 0 C0.33 1.32 0.66 2.64 1 4 C-1.4375 6.75 -1.4375 6.75 -4 9 C-4.33 8.34 -4.66 7.68 -5 7 C-3.35 4.69 -1.7 2.38 0 0 Z " fill="#E5E8EE" transform="translate(728,627)"/>
<path d="M0 0 C6.57142857 5 6.57142857 5 8 10 C6.84481082 9.09515208 5.70114594 8.1755794 4.5625 7.25 C3.60537109 6.48429688 3.60537109 6.48429688 2.62890625 5.703125 C0.81189446 3.80332371 0.39576803 2.56413092 0 0 Z " fill="#0F0F0F" transform="translate(609,606)"/>
<path d="M0 0 C3.08089673 2.77280706 4.68775452 5.06326356 6 9 C3.525 8.01 3.525 8.01 1 7 C0.67 4.69 0.34 2.38 0 0 Z " fill="#101115" transform="translate(304,597)"/>
<path d="M0 0 C2.61577816 5.23155631 1.6207859 6.59738034 0 12 C-0.66 11.67 -1.32 11.34 -2 11 C-1.34 7.37 -0.68 3.74 0 0 Z " fill="#212224" transform="translate(738,544)"/>
<path d="M0 0 C1.32 0.66 2.64 1.32 4 2 C2 4 0 6 -2 8 C-2.33 7.34 -2.66 6.68 -3 6 C-2.06553465 3.96855359 -1.06775224 1.96466413 0 0 Z " fill="#DFE4E5" transform="translate(460,537)"/>
<path d="M0 0 C0.99 0.33 1.98 0.66 3 1 C2.835 1.598125 2.67 2.19625 2.5 2.8125 C1.8885876 5.11344336 1.8885876 5.11344336 2 8 C1.01 8.33 0.02 8.66 -1 9 C-0.67 6.03 -0.34 3.06 0 0 Z " fill="#F3F3F7" transform="translate(825,490)"/>
<path d="M0 0 C0.99 0.33 1.98 0.66 3 1 C3 1.66 3 2.32 3 3 C3.99 3 4.98 3 6 3 C6.33 3.99 6.66 4.98 7 6 C3.62537285 5.45276317 1.91765 4.9451 -1 3 C-0.67 2.01 -0.34 1.02 0 0 Z " fill="#F3F6F7" transform="translate(815,480)"/>
<path d="M0 0 C0.66 0 1.32 0 2 0 C5 5.75 5 5.75 5 8 C3.68 8.33 2.36 8.66 1 9 C1.020625 8.2575 1.04125 7.515 1.0625 6.75 C1.00671312 4.29537721 0.6930096 2.33890739 0 0 Z " fill="#DFDEE1" transform="translate(715,386)"/>
<path d="M0 0 C1.98 0.495 1.98 0.495 4 1 C3.6875 2.9375 3.6875 2.9375 3 5 C2.01 5.33 1.02 5.66 0 6 C-1.125 2.25 -1.125 2.25 0 0 Z " fill="#F0F0F7" transform="translate(436,582)"/>
<path d="M0 0 C0.33 0 0.66 0 1 0 C1.33 2.64 1.66 5.28 2 8 C1.01 8.33 0.02 8.66 -1 9 C-1.33 9.66 -1.66 10.32 -2 11 C-1.125 3.375 -1.125 3.375 0 0 Z " fill="#C7C8CA" transform="translate(761,554)"/>
<path d="M0 0 C0.6875 1.8125 0.6875 1.8125 1 4 C-0.64504011 6.46756016 -1.80299352 6.94960299 -4.6875 7.6875 C-5.8321875 7.8421875 -5.8321875 7.8421875 -7 8 C-6.34 7.67 -5.68 7.34 -5 7 C-4.67 6.01 -4.34 5.02 -4 4 C-1.9375 3.3125 -1.9375 3.3125 0 3 C0 2.01 0 1.02 0 0 Z " fill="#0E0F13" transform="translate(823,494)"/>
<path d="M0 0 C3.73584906 1.47169811 3.73584906 1.47169811 5 4 C4.34 4.66 3.68 5.32 3 6 C2.566875 5.505 2.13375 5.01 1.6875 4.5 C0.00259517 2.66781808 0.00259517 2.66781808 -3 3 C-2 1 -2 1 0 0 Z " fill="#0A0F11" transform="translate(697,426)"/>
<path d="M0 0 C3.3 0.33 6.6 0.66 10 1 C9.67 1.66 9.34 2.32 9 3 C6.03 2.67 3.06 2.34 0 2 C0 1.34 0 0.68 0 0 Z " fill="#E0E1E2" transform="translate(456,711)"/>
<path d="M0 0 C0 2.67884659 -0.11409459 4.50335747 -1 7 C-1.99 7.66 -2.98 8.32 -4 9 C-4.25 6.1875 -4.25 6.1875 -4 3 C-2 1.125 -2 1.125 0 0 Z " fill="#DDDFDC" transform="translate(405,579)"/>
<path d="M0 0 C1.32 0 2.64 0 4 0 C2.60667426 3.36720387 1.0210714 4.9859524 -2 7 C-1.42415568 4.61435923 -0.77772405 2.33317216 0 0 Z " fill="#D9DBDA" transform="translate(621,357)"/>
<path d="M0 0 C2.97 0.495 2.97 0.495 6 1 C5.01 1.495 5.01 1.495 4 2 C4 2.66 4 3.32 4 4 C4.66 4 5.32 4 6 4 C6 4.66 6 5.32 6 6 C3.5625 5.25 3.5625 5.25 1 4 C0.1875 1.875 0.1875 1.875 0 0 Z " fill="#E9EBEA" transform="translate(657,282)"/>
<path d="M0 0 C0.99 0.495 0.99 0.495 2 1 C2.33 1.99 2.66 2.98 3 4 C3.66 4.66 4.32 5.32 5 6 C3.35 6.66 1.7 7.32 0 8 C0 5.36 0 2.72 0 0 Z " fill="#F9FAFB" transform="translate(524,712)"/>
<path d="M0 0 C3.79588866 0.54226981 5.47211993 2.20127563 8 5 C7.67 5.66 7.34 6.32 7 7 C5.83040013 6.02433888 4.66438823 5.044375 3.5 4.0625 C2.8503125 3.51722656 2.200625 2.97195313 1.53125 2.41015625 C1.0259375 1.94480469 0.520625 1.47945312 0 1 C0 0.67 0 0.34 0 0 Z " fill="#1E1E1E" transform="translate(647,643)"/>
<path d="M0 0 C0.6875 1.8125 0.6875 1.8125 1 4 C-0.4375 5.75 -0.4375 5.75 -2 7 C-2.66 6.67 -3.32 6.34 -4 6 C-2.25 1.125 -2.25 1.125 0 0 Z " fill="#E7E8EE" transform="translate(742,606)"/>
<path d="M0 0 C0.66 0 1.32 0 2 0 C1.67 2.97 1.34 5.94 1 9 C0.34 9 -0.32 9 -1 9 C-0.67 6.03 -0.34 3.06 0 0 Z " fill="#1D1F1E" transform="translate(261,446)"/>
<path d="M0 0 C1.9375 0.375 1.9375 0.375 4 1 C4.33 1.66 4.66 2.32 5 3 C4.67 3.66 4.34 4.32 4 5 C2.35 4.67 0.7 4.34 -1 4 C-0.67 2.68 -0.34 1.36 0 0 Z " fill="#0F110F" transform="translate(428,392)"/>
<path d="M0 0 C0.99 0.66 1.98 1.32 3 2 C1.35 3.65 -0.3 5.3 -2 7 C-2 6.01 -2 5.02 -2 4 C-2.66 3.67 -3.32 3.34 -4 3 C-2.68 2.01 -1.36 1.02 0 0 Z " fill="#1C1F24" transform="translate(322,359)"/>
<path d="M0 0 C1.98 0 3.96 0 6 0 C4.25 2 4.25 2 2 4 C0.68 4 -0.64 4 -2 4 C-1.34 2.68 -0.68 1.36 0 0 Z " fill="#E9EBEA" transform="translate(346,296)"/>
<path d="M0 0 C3.34373475 0.55728913 6.03312999 1.35173889 9 3 C9 3.66 9 4.32 9 5 C6.03 4.01 3.06 3.02 0 2 C0 1.34 0 0.68 0 0 Z " fill="#1F2121" transform="translate(598,280)"/>
<path d="M0 0 C0.66 0 1.32 0 2 0 C2 0.66 2 1.32 2 2 C2.99 2 3.98 2 5 2 C5 2.99 5 3.98 5 5 C5.66 5 6.32 5 7 5 C6.67 5.99 6.34 6.98 6 8 C4.99403703 7.0479279 3.99538437 6.08812654 3 5.125 C2.443125 4.59132813 1.88625 4.05765625 1.3125 3.5078125 C0 2 0 2 0 0 Z " fill="#EFF1F8" transform="translate(313,280)"/>
<path d="M0 0 C2.31 0 4.62 0 7 0 C4.37801226 2.15377564 2.35595828 3.40072174 -1 4 C-0.67 2.68 -0.34 1.36 0 0 Z " fill="#D7D9D7" transform="translate(398,265)"/>
<path d="M0 0 C0.99 0.33 1.98 0.66 3 1 C2.34 2.32 1.68 3.64 1 5 C-0.65 5 -2.3 5 -4 5 C-2.68 3.35 -1.36 1.7 0 0 Z " fill="#1E201F" transform="translate(313,671)"/>
<path d="M0 0 C3.26954202 0.56371414 4.82575883 1.49962266 7 4 C6.67 4.66 6.34 5.32 6 6 C5.01 5.67 4.02 5.34 3 5 C3 4.34 3 3.68 3 3 C2.01 2.67 1.02 2.34 0 2 C0 1.34 0 0.68 0 0 Z " fill="#0C0D0F" transform="translate(671,634)"/>
<path d="M0 0 C0.99 0 1.98 0 3 0 C3 0.66 3 1.32 3 2 C3.99 2.33 4.98 2.66 6 3 C5.67 3.66 5.34 4.32 5 5 C3.68 5 2.36 5 1 5 C0.67 3.35 0.34 1.7 0 0 Z " fill="#EFF0F1" transform="translate(324,623)"/>
<path d="M0 0 C0.33 0.66 0.66 1.32 1 2 C-0.65 3.98 -2.3 5.96 -4 8 C-4.33 7.01 -4.66 6.02 -5 5 C-3.35 3.35 -1.7 1.7 0 0 Z " fill="#111310" transform="translate(403,586)"/>
<path d="M0 0 C1.98 0.99 1.98 0.99 4 2 C3.01 2.495 3.01 2.495 2 3 C2 4.32 2 5.64 2 7 C1.34 7 0.68 7 0 7 C0 4.69 0 2.38 0 0 Z " fill="#0E0E0E" transform="translate(324,430)"/>
<path d="M0 0 C1.33333333 2.66666667 2.66666667 5.33333333 4 8 C-0.8 5.53846154 -0.8 5.53846154 -1.8125 2.8125 C-1.874375 2.214375 -1.93625 1.61625 -2 1 C-1.34 0.67 -0.68 0.34 0 0 Z " fill="#EFF0F1" transform="translate(438,396)"/>
<path d="M0 0 C3.80984844 2.77079887 4.06840752 6.62868145 5 11 C2.65808437 8.8709858 1.16445046 6.95591271 0 4 C0 2.68 0 1.36 0 0 Z " fill="#111014" transform="translate(719,388)"/>
<path d="M0 0 C0 3 0 3 -1 5 C-1.66 5 -2.32 5 -3 5 C-3.66 6.32 -4.32 7.64 -5 9 C-5.33 8.01 -5.66 7.02 -6 6 C-4.02 4.02 -2.04 2.04 0 0 Z " fill="#0E1110" transform="translate(607,377)"/>
<path d="M0 0 C-0.33 1.65 -0.66 3.3 -1 5 C-2.32 4.67 -3.64 4.34 -5 4 C-5 3.34 -5 2.68 -5 2 C-2 0 -2 0 0 0 Z " fill="#EDEEF0" transform="translate(743,372)"/>
<path d="M0 0 C1.65 0 3.3 0 5 0 C4.67 1.65 4.34 3.3 4 5 C2.68 4.34 1.36 3.68 0 3 C0 2.01 0 1.02 0 0 Z " fill="#EAEDF2" transform="translate(307,273)"/>
<path d="M0 0 C2.97 0.495 2.97 0.495 6 1 C6.33 1.99 6.66 2.98 7 4 C2.25 3.125 2.25 3.125 0 2 C0 1.34 0 0.68 0 0 Z " fill="#2D2D2D" transform="translate(406,720)"/>
<path d="M0 0 C2.64 0.33 5.28 0.66 8 1 C4.81237635 3.12508244 2.73487777 3.5020163 -1 4 C-0.67 2.68 -0.34 1.36 0 0 Z " fill="#232424" transform="translate(458,713)"/>
<path d="M0 0 C1.32 0.99 2.64 1.98 4 3 C4.33 2.34 4.66 1.68 5 1 C5.33 1.99 5.66 2.98 6 4 C4.35 4.33 2.7 4.66 1 5 C0.34 4.01 -0.32 3.02 -1 2 C-0.67 1.34 -0.34 0.68 0 0 Z " fill="#2E3030" transform="translate(336,642)"/>
<path d="M0 0 C5.57142857 5.14285714 5.57142857 5.14285714 6 9 C0.42857143 3.85714286 0.42857143 3.85714286 0 0 Z " fill="#0C0D0E" transform="translate(317,618)"/>
<path d="M0 0 C0.66 0.99 1.32 1.98 2 3 C1.125 5.6875 1.125 5.6875 0 8 C-0.99 8 -1.98 8 -3 8 C-1.125 2.25 -1.125 2.25 0 0 Z " fill="#242625" transform="translate(429,547)"/>
<path d="M0 0 C0.99 0 1.98 0 3 0 C2.67 2.64 2.34 5.28 2 8 C-0.1519437 4.77208445 -0.20086443 3.71599191 0 0 Z " fill="#DEDFE1" transform="translate(737,536)"/>
<path d="M0 0 C2.12508244 3.18762365 2.5020163 5.26512223 3 9 C2.34 9 1.68 9 1 9 C-1.125 2.25 -1.125 2.25 0 0 Z " fill="#2A2C2D" transform="translate(587,527)"/>
<path d="M0 0 C1.875 0.3125 1.875 0.3125 4 1 C6 4 6 4 6 7 C5.34 7 4.68 7 4 7 C3.566875 5.5459375 3.566875 5.5459375 3.125 4.0625 C2.35785318 0.89335797 2.35785318 0.89335797 0 0 Z " fill="#0F1012" transform="translate(720,351)"/>
<path d="M0 0 C1.32 0 2.64 0 4 0 C4 0.66 4 1.32 4 2 C1.5 3.625 1.5 3.625 -1 5 C-1 1 -1 1 0 0 Z " fill="#1F2020" transform="translate(672,346)"/>
<path d="M0 0 C0.66 0 1.32 0 2 0 C2 0.99 2 1.98 2 3 C2.66 3 3.32 3 4 3 C3.67 3.66 3.34 4.32 3 5 C2.01 5 1.02 5 0 5 C-0.5625 3.0625 -0.5625 3.0625 -1 1 C-0.67 0.67 -0.34 0.34 0 0 Z " fill="#EDEEF0" transform="translate(362,320)"/>
<path d="M0 0 C0 3.90838866 -1.50567876 5.11594107 -4 8 C-4.99 7.67 -5.98 7.34 -7 7 C-4.69 4.69 -2.38 2.38 0 0 Z " fill="#EFF3F6" transform="translate(712,311)"/>
<path d="M0 0 C0 2.66420516 -0.09162237 4.52260646 -1 7 C-1.99 7.33 -2.98 7.66 -4 8 C-3.50168276 4.31245243 -2.89932357 2.39509338 0 0 Z " fill="#101113" transform="translate(345,302)"/>
</svg>
